<?xml version="1.0" standalone="no"?>
<!DOCTYPE svg PUBLIC "-//W3C//DTD SVG 20010904//EN"
 "http://www.w3.org/TR/2001/REC-SVG-20010904/DTD/svg10.dtd">
<svg version="1.0" xmlns="http://www.w3.org/2000/svg"
 width="512.000000pt" height="512.000000pt" viewBox="0 0 512.000000 512.000000"
 preserveAspectRatio="xMidYMid meet">

<g transform="translate(0.000000,512.000000) scale(0.100000,-0.100000)"
fill="#000000" stroke="none">
<path d="M2325 5109 c-486 -50 -924 -220 -1315 -512 -122 -92 -395 -365 -487
-487 -269 -361 -437 -766 -499 -1205 -26 -180 -26 -510 0 -690 39 -278 120
-539 242 -784 129 -259 254 -438 449 -639 221 -229 439 -390 710 -523 260
-127 483 -198 760 -241 201 -31 550 -31 750 0 277 43 513 118 754 238 280 139
449 261 676 489 230 229 352 399 490 680 123 250 194 477 237 750 29 186 31
539 5 720 -64 441 -234 851 -499 1202 -93 123 -305 343 -423 437 -371 298
-778 478 -1238 547 -153 23 -473 33 -612 18z m1264 -1099 c43 -34 90 -63 106
-66 15 -3 36 -9 45 -14 25 -14 80 -79 80 -95 0 -8 30 -51 66 -95 36 -45 64
-83 62 -84 -1 -2 -30 -12 -62 -23 -81 -26 -88 -40 -45 -92 26 -33 31 -46 23
-59 -18 -28 -62 -45 -100 -37 -34 6 -49 25 -68 88 -8 25 -48 38 -85 27 -17 -5
-58 -25 -90 -44 -67 -41 -165 -86 -186 -86 -18 0 -164 177 -172 208 -9 36 15
55 59 48 78 -13 113 37 77 110 -40 83 -90 102 -165 62 -40 -21 -43 -21 -68 -5
-14 10 -35 35 -45 56 l-20 38 102 32 c140 43 170 42 217 -9 32 -34 43 -40 78
-40 30 0 49 7 69 25 l28 25 -37 34 c-21 18 -38 36 -38 39 0 5 32 12 73 16 10
0 53 -26 96 -59z m-2089 15 c-19 -23 -6 -28 27 -12 15 8 45 17 66 20 36 6 37
5 26 -16 -31 -58 -51 -77 -82 -77 -36 -1 -62 -17 -89 -57 -25 -39 -23 -63 6
-63 13 0 29 7 36 15 22 27 31 1 16 -43 -9 -24 -31 -71 -51 -106 l-35 -63 -95
-25 c-52 -13 -95 -21 -95 -18 0 4 12 29 26 55 22 39 24 49 13 56 -32 20 -101
-30 -120 -89 -12 -37 -60 -65 -96 -56 -19 5 -19 8 15 60 19 30 41 54 48 54 17
0 84 83 84 104 0 29 96 120 160 153 33 18 60 29 60 26 0 -3 -12 -20 -27 -38
-16 -18 -36 -42 -45 -54 -10 -11 -25 -21 -34 -21 -15 0 -15 2 1 26 9 15 12 25
5 22 -6 -2 -21 -19 -32 -37 l-22 -34 27 7 c32 8 34 0 7 -34 -24 -30 -25 -44
-4 -36 12 4 14 1 9 -14 -9 -29 10 -25 23 5 10 21 9 25 -3 25 -8 0 -15 3 -15 8
0 4 32 49 70 100 38 50 65 92 60 92 -6 0 -2 9 8 20 9 11 25 29 35 40 20 23 36
28 17 5z m1109 -64 c7 -5 11 -14 7 -20 -7 -11 10 -51 28 -63 23 -16 95 -7 206
26 l114 33 27 -43 c51 -79 114 -98 184 -54 l36 22 34 -37 c26 -26 35 -45 35
-70 0 -37 -15 -47 -60 -39 -57 12 -100 -18 -100 -71 0 -8 38 -62 85 -120 47
-58 85 -108 85 -110 0 -12 -232 -78 -279 -79 -56 -1 -56 -1 -55 29 0 17 4 42
8 57 25 89 -216 77 -309 -16 -14 -14 -25 -32 -25 -40 0 -26 46 -70 86 -81 51
-14 53 -43 4 -67 -33 -16 -222 -59 -322 -72 l-46 -7 -17 73 c-9 40 -19 104
-22 142 -7 85 3 96 90 96 52 0 62 3 89 30 26 26 30 36 25 66 -7 43 -50 102
-83 114 -30 12 -66 -1 -111 -40 -58 -51 -70 -42 -88 63 -9 50 -9 70 -1 72 6 2
38 11 72 19 82 21 131 42 162 71 l25 23 -28 26 c-27 25 -27 27 -10 45 9 11 27
22 39 24 39 8 101 7 115 -2z m-1359 -303 c0 -7 -9 -24 -20 -38 -11 -14 -20
-36 -20 -49 0 -22 3 -23 38 -17 20 4 63 13 94 20 l58 14 -6 -52 c-8 -64 7 -81
65 -73 44 6 51 -2 51 -57 0 -19 -9 -45 -22 -61 -20 -25 -25 -27 -74 -21 -49 6
-56 4 -88 -25 -51 -44 -76 -119 -76 -228 l0 -88 -27 -6 c-118 -23 -203 -16
-203 18 0 9 9 33 20 55 11 22 20 50 20 63 0 49 -48 62 -94 26 -22 -17 -26 -28
-26 -72 0 -96 -33 -128 -107 -109 -26 7 -49 15 -51 17 -10 10 31 145 43 145
20 0 30 21 14 30 -10 7 -9 19 6 64 19 56 29 67 38 44 3 -7 6 -4 7 7 5 68 12
92 52 167 l44 83 50 0 c62 0 100 23 121 73 8 20 24 47 36 60 22 24 57 30 57
10z m2809 -72 c25 -38 43 -77 43 -96 1 -33 18 -54 18 -23 1 28 63 -98 67 -136
2 -19 8 -41 14 -50 8 -13 9 -11 4 7 -4 12 -4 22 -2 22 10 0 66 -170 61 -184
-3 -8 -21 -20 -39 -26 -70 -23 -86 -78 -46 -155 31 -59 28 -107 -10 -139 -48
-41 -69 -31 -69 31 0 40 -21 101 -41 119 -28 25 -55 12 -154 -73 -49 -42 -117
-94 -150 -115 l-60 -39 -11 63 c-16 84 -58 186 -95 232 -26 30 -37 37 -63 34
-25 -2 -35 -11 -54 -45 -18 -33 -32 -45 -64 -55 -39 -12 -41 -11 -69 20 -61
68 -63 164 -4 170 17 1 47 7 68 12 34 10 37 14 37 48 0 56 -16 101 -52 146
-24 30 -28 41 -18 44 13 5 132 66 220 113 61 33 79 30 95 -16 25 -71 93 -101
160 -69 51 24 55 55 17 110 -17 24 -28 45 -24 47 4 2 40 14 81 26 60 18 76 20
83 9 4 -7 18 -28 29 -45 11 -18 23 -33 26 -33 3 0 -1 10 -9 23 -8 12 -22 34
-31 48 -14 21 -14 39 -2 39 2 0 21 -29 44 -64z m-1124 -145 c3 -5 0 -31 -7
-56 -12 -45 -12 -48 12 -67 36 -29 128 -20 269 27 110 36 113 37 133 19 27
-24 68 -111 68 -145 0 -25 -3 -27 -55 -31 -74 -6 -95 -26 -95 -91 0 -57 27
-121 66 -158 50 -47 142 -21 173 49 10 23 21 32 38 32 41 0 107 -140 120 -256
l6 -52 -89 -41 c-115 -54 -257 -111 -277 -111 -14 0 -14 4 3 33 17 30 24 60
21 99 -2 29 -57 51 -107 43 -68 -10 -183 -52 -220 -80 -42 -32 -68 -80 -60
-110 3 -13 25 -34 51 -49 64 -38 62 -66 -7 -106 -107 -61 -201 -85 -358 -92
l-75 -3 -7 82 c-11 140 -75 230 -172 240 -61 7 -93 -2 -126 -39 -56 -61 -110
-9 -110 107 0 46 4 60 25 81 25 25 28 25 115 18 l89 -7 31 31 c37 37 37 51 4
181 -14 55 -22 105 -19 111 3 5 17 10 30 10 43 0 301 57 333 74 38 19 54 47
50 84 -2 21 -12 30 -56 47 -30 11 -58 28 -63 37 -22 39 94 97 198 97 34 1 64
-3 68 -8z m-1905 -326 c10 -12 8 -24 -9 -64 -26 -62 -26 -75 1 -101 24 -22 98
-26 189 -11 l47 8 4 -76 c7 -145 -16 -208 -66 -182 -37 20 -77 17 -97 -8 -28
-34 -35 -123 -14 -177 24 -62 47 -73 92 -41 20 14 41 23 48 21 21 -8 37 -91
42 -221 l6 -123 -49 0 c-70 0 -173 27 -217 56 l-37 24 1 78 c1 43 -5 89 -12
105 -22 48 -106 86 -125 56 -3 -6 -6 -40 -5 -75 1 -35 -2 -64 -7 -64 -20 0
-52 34 -64 68 -24 67 -12 522 15 548 1 2 23 -4 49 -13 42 -16 47 -16 70 -1 35
23 58 77 58 135 0 27 5 54 12 61 17 17 53 15 68 -3z m1324 -134 c14 -57 26
-113 26 -123 0 -31 -55 -48 -117 -35 -112 23 -173 -26 -173 -138 1 -146 94
-222 171 -140 29 31 40 35 81 35 93 0 158 -93 158 -226 l0 -63 -57 -6 c-153
-17 -398 -77 -474 -115 -51 -26 -51 -52 1 -99 64 -59 54 -74 -72 -106 -89 -24
-162 -24 -187 0 -27 23 -26 30 4 57 53 46 13 123 -75 146 -38 9 -161 4 -290
-13 l-46 -6 -11 138 c-12 141 -22 184 -50 215 -21 23 -42 22 -73 -2 -36 -28
-49 -25 -66 16 -24 56 -1 154 35 154 5 0 24 -7 43 -15 31 -12 38 -12 56 1 37
26 45 55 51 179 l6 120 90 12 c100 13 215 16 239 7 14 -5 12 -10 -10 -33 -54
-53 -51 -105 8 -141 68 -41 205 -15 271 51 33 33 38 43 32 66 -3 16 -16 38
-28 51 -20 22 -20 22 -1 36 10 8 50 23 89 32 103 25 329 63 337 55 3 -3 18
-53 32 -110z m1945 14 c23 -92 26 -130 11 -120 -6 4 -9 -22 -8 -72 2 -69 2
-72 5 -20 4 56 15 73 27 41 10 -26 7 -144 -4 -144 -5 0 -11 10 -11 23 l-2 22
-4 -22 c-5 -27 14 -66 28 -57 7 4 9 -20 6 -72 -7 -106 -7 -109 -46 -187 -28
-55 -36 -85 -41 -148 -4 -68 -9 -83 -32 -105 -36 -37 -47 -25 -42 44 l5 57
-37 -45 c-47 -56 -149 -156 -179 -176 -21 -14 -25 -13 -54 13 -38 35 -63 101
-64 175 -2 72 14 91 79 93 38 2 53 8 70 28 42 49 44 187 3 228 -24 24 -81 25
-101 2 -9 -10 -23 -33 -32 -50 -14 -27 -22 -33 -50 -33 -18 0 -38 6 -43 13
-13 15 -83 181 -83 194 0 6 28 27 63 49 34 21 98 70 142 109 44 39 92 79 106
89 24 15 28 15 42 1 9 -9 19 -32 23 -53 16 -90 20 -106 35 -115 25 -16 68 1
90 36 25 40 21 115 -11 177 -21 41 -21 43 -3 62 16 18 66 46 84 48 4 0 16 -38
28 -85z m-1025 -301 c21 -8 20 -32 -5 -88 -24 -54 -15 -76 30 -76 33 0 192 56
294 104 70 32 78 34 84 18 19 -57 78 -190 91 -204 9 -11 29 -18 53 -18 42 0
69 21 89 71 10 24 18 29 45 29 18 0 37 -6 43 -12 28 -35 25 -144 -5 -173 -8
-9 -33 -15 -59 -15 -58 0 -90 -30 -99 -92 -12 -81 25 -215 67 -241 10 -7 18
-16 18 -22 0 -14 -177 -144 -244 -179 -55 -29 -156 -48 -156 -29 0 5 7 31 16
56 31 91 0 120 -105 97 -79 -17 -214 -83 -245 -121 -39 -46 -33 -86 17 -112
20 -10 37 -22 37 -26 0 -14 -134 -70 -214 -91 -58 -14 -269 -40 -333 -40 -2 0
-16 25 -30 56 -39 85 -15 152 69 195 35 18 52 20 113 14 66 -6 74 -5 99 17 50
43 45 187 -9 238 -25 23 -81 36 -119 26 -14 -3 -47 -26 -74 -49 -58 -52 -107
-75 -131 -61 -34 21 -61 96 -67 191 l-7 91 59 6 c218 23 303 44 394 98 97 58
104 116 22 171 -23 16 -42 34 -42 41 0 30 79 85 152 106 40 12 78 23 83 25 17
6 53 5 69 -1z m-2363 -279 c39 -20 48 -48 43 -121 -4 -47 -1 -65 15 -90 33
-53 163 -104 265 -104 l31 0 1 -78 c1 -97 31 -175 77 -199 39 -19 104 -19 126
1 10 9 23 16 29 16 23 0 71 -53 88 -96 34 -88 -17 -119 -120 -73 -26 11 -55
17 -66 14 -58 -18 -64 -73 -21 -170 17 -36 27 -65 23 -65 -13 0 -87 21 -129
36 -33 12 -43 21 -43 37 0 34 -34 82 -90 126 -57 46 -80 51 -80 21 0 -24 29
-84 36 -77 3 3 0 14 -8 26 -9 14 -9 24 -2 31 18 18 102 -54 114 -98 16 -63 70
-99 178 -123 45 -9 56 -18 128 -101 43 -51 87 -102 96 -114 l18 -22 -40 5
c-22 3 -40 1 -40 -4 0 -14 69 -77 115 -105 65 -40 103 -50 128 -33 20 13 30 8
140 -62 81 -53 114 -79 105 -84 -10 -7 -9 -9 5 -9 9 0 17 -4 17 -10 0 -13 -27
-11 -70 5 l-35 13 35 3 c24 1 15 4 -31 10 -102 13 -405 162 -393 193 5 13 -67
85 -107 106 -13 7 0 -9 30 -36 29 -26 48 -50 42 -52 -13 -4 -87 50 -109 80 -7
10 -18 18 -25 18 -15 0 -87 71 -87 86 0 7 -5 16 -12 20 -7 5 -8 2 -3 -7 4 -8
-13 6 -40 31 -46 44 -175 202 -175 214 0 4 12 -1 26 -11 25 -16 26 -16 23 2
-2 10 -12 19 -23 21 -56 8 -174 199 -207 337 -9 35 -14 45 -21 35 -7 -9 -8 -7
-5 10 3 12 1 20 -3 17 -10 -6 -32 54 -24 67 3 5 -1 20 -10 33 -14 21 -30 79
-62 224 l-5 24 32 -27 c46 -39 55 -30 51 52 -4 68 -3 72 18 72 11 0 34 -7 51
-15z m3422 -37 c-9 -81 -55 -272 -85 -357 -33 -94 -113 -271 -122 -271 -4 0 1
16 9 36 15 37 20 74 9 74 -15 0 -93 -64 -97 -81 -4 -16 0 -15 29 8 19 14 37
23 40 20 11 -11 -30 -108 -49 -119 -10 -5 -16 -16 -13 -23 3 -8 0 -17 -6 -21
-7 -5 -8 -2 -4 7 4 8 0 5 -8 -5 -20 -25 -21 -42 -1 -26 34 28 10 -11 -62 -105
-59 -75 -90 -105 -128 -125 -27 -14 -74 -40 -102 -58 -29 -17 -53 -29 -53 -25
0 3 26 38 58 77 135 164 150 221 38 141 -51 -36 -100 -46 -109 -21 -10 24 13
85 36 100 12 8 46 17 76 21 43 6 60 14 91 45 49 49 82 135 86 228 l3 73 84 82
c46 45 93 95 104 111 l20 29 -5 -55 c-5 -65 5 -76 43 -46 37 29 55 76 55 145
0 43 7 74 30 121 16 34 31 62 34 62 2 0 2 -19 -1 -42z m-1833 -180 c0 -134 48
-260 105 -274 35 -9 98 20 158 74 38 34 55 42 86 42 59 0 85 -34 89 -118 1
-37 -1 -73 -6 -81 -7 -10 -33 -13 -98 -12 -105 2 -141 -13 -191 -78 -45 -58
-51 -101 -24 -165 26 -65 26 -66 -5 -66 -83 0 -364 -76 -408 -111 -36 -28 -33
-52 12 -89 35 -29 36 -32 18 -45 -46 -34 -219 -47 -282 -20 -38 16 -40 26 -19
91 4 13 0 28 -12 43 -18 21 -29 24 -173 31 -85 5 -190 12 -233 15 l-78 7 -23
47 c-48 94 -50 138 -6 161 13 7 30 5 62 -10 60 -27 122 -26 142 2 23 32 20 66
-10 126 -43 86 -110 123 -158 87 -52 -40 -124 -4 -145 71 -12 45 -14 153 -3
171 4 7 68 18 157 27 157 17 199 13 236 -20 20 -18 25 -44 9 -44 -21 0 -42
-49 -35 -80 15 -69 103 -87 250 -50 93 24 122 41 131 76 5 21 -1 34 -40 73
l-46 47 107 36 c113 38 309 80 411 87 20 1 22 -3 22 -51z m1445 -338 c-18
-133 -62 -189 -163 -209 -49 -9 -66 -18 -91 -47 -34 -38 -44 -67 -39 -110 5
-46 50 -45 124 5 32 22 60 38 62 36 7 -7 -20 -47 -80 -118 -33 -39 -70 -86
-82 -104 -15 -23 -48 -45 -117 -78 -109 -51 -125 -55 -109 -26 19 37 13 44
-31 37 -55 -9 -187 -70 -195 -91 -4 -8 -1 -21 5 -29 9 -11 5 -16 -16 -25 -28
-11 -256 -63 -257 -59 -1 2 -13 26 -27 53 -25 48 -28 50 -72 53 -32 2 -74 -6
-135 -27 -102 -35 -152 -39 -174 -13 -45 52 -21 86 77 107 39 8 87 15 108 15
80 0 163 72 137 120 -6 11 -30 29 -53 41 -46 23 -107 77 -107 94 0 7 46 16
121 24 188 19 353 68 413 122 26 23 29 31 20 46 -6 10 -23 24 -38 31 -58 29
-40 71 50 119 74 39 196 78 218 70 20 -8 20 -42 1 -96 -20 -59 -12 -71 46 -71
77 0 151 34 277 131 111 83 117 87 125 66 5 -12 6 -42 2 -67z m-1270 -390 c10
-31 65 -81 111 -100 48 -21 58 -33 49 -60 -9 -30 -54 -49 -142 -61 -170 -22
-211 -46 -199 -115 14 -74 94 -83 250 -29 54 18 105 31 112 28 14 -5 54 -73
54 -91 0 -16 -146 -63 -281 -90 -76 -16 -134 -32 -137 -40 -2 -7 6 -12 20 -12
53 -1 51 -18 -3 -28 -30 -5 -44 -10 -31 -11 12 0 22 -6 22 -12 0 -5 4 -8 9 -5
5 4 11 0 14 -6 3 -10 9 -10 28 -1 13 6 31 14 39 16 8 3 -1 6 -20 7 l-35 2 33
10 c43 15 40 25 -10 34 -41 7 -38 8 71 30 62 12 151 34 198 49 47 14 88 24 91
20 3 -3 1 -15 -6 -25 -7 -11 -12 -29 -12 -40 0 -16 7 -20 34 -20 18 0 53 7 76
15 23 8 51 15 62 15 17 0 18 -3 8 -15 -15 -17 -7 -19 21 -5 21 12 26 40 7 40
-7 0 -46 -10 -86 -22 -61 -18 -75 -19 -82 -8 -5 8 -3 22 6 34 8 11 14 28 14
36 0 13 26 22 114 39 112 23 196 55 204 79 2 7 -3 12 -12 12 -23 0 -20 17 7
34 27 18 148 59 154 52 3 -2 -4 -17 -13 -32 l-18 -27 36 6 c20 3 71 22 113 41
43 20 80 35 81 33 2 -2 0 -13 -3 -26 -4 -15 -21 -29 -47 -41 -47 -20 -101 -63
-117 -93 -10 -17 -9 -19 7 -13 50 17 -30 -31 -141 -85 -147 -72 -317 -129
-362 -122 -40 6 -43 22 -5 24 20 1 22 3 6 6 -27 5 -77 -14 -69 -27 3 -5 16
-10 28 -11 55 -2 -77 -30 -168 -35 -270 -16 -363 -16 -423 0 -32 8 -70 12 -82
9 -16 -4 -21 -3 -16 5 5 9 -8 12 -46 12 -70 0 -98 9 -98 30 0 15 12 16 133 12
97 -3 134 -8 140 -18 12 -20 39 -17 35 4 -3 15 -22 18 -161 25 l-158 7 -133
85 c-131 84 -159 95 -196 75 -26 -14 -102 24 -149 74 -37 38 -35 41 17 27 51
-15 41 7 -50 111 -44 51 -88 101 -97 112 -16 18 -14 18 64 11 44 -4 145 -11
225 -14 l145 -6 -4 -25 c-12 -74 -7 -93 29 -114 30 -18 51 -21 160 -21 131 0
182 14 197 52 6 16 -23 49 -64 72 -17 9 -17 11 2 30 35 34 305 109 402 110 33
1 43 -3 48 -19z m1120 -151 c-96 -98 -275 -229 -312 -229 -18 0 64 70 87 75
30 7 60 35 82 79 10 18 47 48 104 82 49 29 91 53 94 54 2 0 -22 -27 -55 -61z"/>
<path d="M3498 3899 c-17 -10 0 -35 137 -197 2 -2 17 4 34 13 38 19 39 39 6
87 -32 48 -32 58 1 24 28 -27 39 -32 48 -18 3 5 -10 23 -28 41 -29 28 -34 30
-46 16 -11 -13 -17 -11 -53 15 -43 31 -70 36 -99 19z m71 -29 c52 -42 116
-129 104 -141 -5 -5 -38 24 -86 81 -79 92 -86 114 -18 60z"/>
<path d="M3455 3850 c-9 -29 27 -101 77 -154 47 -48 67 -56 88 -31 10 12 10
15 -3 15 -20 0 -79 69 -118 138 -17 28 -32 52 -34 52 -2 0 -6 -9 -10 -20z"/>
<path d="M2602 3760 c16 -26 -1 -40 -50 -40 -19 0 -32 -3 -30 -7 30 -63 44
-83 60 -83 22 0 22 4 2 36 -20 30 -15 36 50 58 81 26 86 24 86 -37 0 -36 -8
-69 -23 -100 -20 -39 -21 -45 -6 -37 32 18 71 112 67 166 -3 54 -5 55 -85 38
-26 -5 -33 -3 -33 10 0 10 -9 16 -25 16 -23 0 -24 -2 -13 -20z"/>
<path d="M2850 3716 c0 -12 -14 -44 -31 -72 l-31 -49 30 28 30 29 21 -48 c28
-63 39 -48 16 20 -15 44 -16 60 -8 79 10 22 9 26 -8 30 -14 4 -19 0 -19 -17z"/>
<path d="M1175 3408 c-49 -111 -42 -128 18 -47 39 54 49 99 21 99 -9 0 -25
-22 -39 -52z m35 10 c0 -7 -11 -26 -25 -43 l-24 -30 16 43 c15 40 33 56 33 30z"/>
<path d="M994 3358 c-10 -13 -12 -17 -4 -10 18 15 34 16 24 0 -4 -7 -3 -8 4
-4 14 8 16 36 4 36 -5 0 -17 -10 -28 -22z"/>
<path d="M1085 3351 c-13 -12 -37 -21 -65 -22 -42 -3 -59 -12 -60 -32 0 -18
96 6 123 31 15 14 27 21 27 15 0 -6 -6 -16 -14 -22 -24 -20 -30 -64 -10 -78
15 -11 21 -10 41 9 28 26 31 49 4 24 -11 -10 -27 -16 -36 -14 -15 3 -15 6 4
30 20 25 29 78 13 78 -4 0 -16 -9 -27 -19z"/>
<path d="M4075 3506 c10 -14 19 -26 22 -26 7 0 -17 39 -28 46 -6 3 -3 -5 6
-20z"/>
<path d="M3952 3398 c-14 -14 -16 -67 -3 -100 5 -13 25 -45 45 -72 41 -52 41
-82 1 -92 -37 -9 -64 4 -118 60 l-50 51 29 -54 c31 -58 103 -121 139 -121 51
0 75 77 55 176 -23 109 -69 181 -98 152z m50 -80 c8 -13 19 -34 23 -48 7 -25
7 -25 -24 4 -17 17 -31 38 -31 48 0 25 15 23 32 -4z"/>
<path d="M3080 3155 c-25 -7 -37 -13 -28 -14 30 -2 35 -31 26 -131 -5 -52 -11
-101 -13 -108 -3 -8 -22 6 -49 37 l-44 49 13 63 c8 37 21 69 31 76 22 16 15
16 -43 1 -40 -10 -44 -12 -25 -19 23 -9 26 -31 13 -78 -6 -24 -7 -24 -39 13
-26 30 -31 41 -21 52 14 17 8 17 -56 1 -44 -12 -47 -14 -25 -20 14 -3 48 -33
76 -65 l52 -58 -10 -52 c-6 -28 -15 -49 -20 -46 -5 3 -43 46 -84 96 -71 86
-74 92 -58 109 21 23 14 23 -60 0 -51 -16 -55 -19 -34 -24 27 -7 78 -59 178
-182 l64 -80 17 73 c9 40 19 75 22 79 4 3 19 -10 34 -28 15 -18 38 -44 49 -58
l22 -25 6 29 c3 17 12 88 21 159 10 91 19 134 31 147 19 22 16 22 -46 4z"/>
<path d="M881 2850 c-1 -41 13 -60 45 -60 13 0 30 -7 39 -16 26 -26 0 -34 -54
-18 -55 17 -61 17 -61 3 0 -5 14 -15 31 -21 31 -11 31 -12 25 -62 -9 -83 11
-121 44 -81 20 24 32 3 19 -33 -8 -24 -17 -32 -35 -32 -31 0 -53 44 -64 129
l-9 66 4 -83 c3 -47 11 -98 21 -117 26 -57 74 -58 93 -3 14 39 14 67 0 107
l-11 32 -24 -22 -24 -22 0 53 0 53 33 -6 c17 -4 42 -9 55 -13 16 -5 22 -2 22
10 0 9 -8 16 -20 16 -15 0 -20 7 -20 28 0 39 -14 55 -57 67 -26 7 -39 17 -44
35 -6 22 -7 21 -8 -10z"/>
<path d="M1718 2684 c-123 -38 -166 -168 -86 -259 16 -19 44 -39 62 -43 42
-11 37 -25 -14 -35 -33 -7 -46 -5 -60 8 -18 17 -19 16 -13 -21 3 -22 7 -41 9
-43 4 -5 134 16 141 23 15 14 -12 70 -42 87 -90 53 -84 225 9 264 112 47 215
-120 141 -229 -30 -44 -35 -106 -8 -106 9 0 45 5 80 11 67 12 70 16 53 69 -6
21 -8 22 -14 8 -8 -17 -102 -45 -113 -34 -4 4 9 20 29 36 46 38 62 78 56 141
-5 49 -36 96 -78 119 -32 17 -105 19 -152 4z"/>
<path d="M4210 2733 c0 -5 4 -13 9 -18 5 -6 11 -19 14 -30 3 -11 5 -5 4 14 -1
19 -8 36 -14 39 -7 2 -13 0 -13 -5z"/>
<path d="M4145 2636 c-20 -60 -9 -106 24 -106 45 0 58 102 17 137 l-24 21 -17
-52z m53 -27 c3 -41 -10 -64 -32 -56 -32 12 -13 104 19 94 5 -2 11 -19 13 -38z"/>
<path d="M4240 2603 c0 -59 -1 -61 -50 -107 -27 -25 -56 -46 -65 -46 -19 0
-20 -16 -1 -23 8 -3 22 4 33 15 18 20 18 19 24 -43 l6 -64 1 67 c2 55 6 72 28
97 14 17 29 29 34 26 7 -5 1 125 -6 134 -2 2 -4 -23 -4 -56z"/>
<path d="M4253 2440 c0 -36 2 -50 4 -32 2 17 2 47 0 65 -2 17 -4 3 -4 -33z"/>
<path d="M3390 2389 c-80 -33 -102 -46 -58 -35 21 5 30 2 38 -15 10 -17 2 -41
-49 -147 -33 -70 -63 -128 -68 -129 -8 -3 -53 177 -53 214 0 12 10 29 23 39
19 14 19 16 2 9 -11 -3 -51 -16 -90 -28 -66 -21 -68 -22 -35 -27 l35 -5 33
-125 c37 -145 38 -179 2 -197 -40 -20 -9 -15 70 12 83 28 94 35 54 32 -46 -3
-41 25 29 168 l64 130 22 -93 c27 -120 27 -147 -1 -167 l-23 -17 23 7 c33 10
132 54 132 59 0 2 -8 2 -19 -1 -10 -3 -22 0 -26 7 -10 16 -65 259 -65 286 0
12 10 29 23 37 31 22 23 20 -63 -14z"/>
<path d="M895 2110 c-3 -5 -1 -26 4 -46 6 -21 8 -41 5 -46 -3 -5 0 -16 7 -24
7 -9 25 -52 39 -97 15 -45 32 -91 39 -102 14 -22 13 -21 -24 88 -15 43 -25 81
-22 84 3 3 29 -4 58 -15 41 -15 55 -26 60 -45 7 -26 7 -26 -17 -10 -30 19 -49
6 -39 -27 6 -20 8 -20 19 -4 11 14 16 15 35 4 14 -7 20 -17 17 -27 -3 -8 -6
-17 -6 -19 0 -2 -7 -4 -16 -4 -14 0 -14 -3 -4 -15 7 -9 20 -13 29 -10 11 3 21
-7 33 -37 25 -58 32 -43 9 18 -10 27 -26 73 -35 103 -15 52 -15 53 4 48 11 -3
20 -1 20 4 0 10 -34 29 -63 35 -94 18 -137 50 -137 105 0 34 32 21 89 -38 33
-34 48 -45 37 -28 -27 44 -67 85 -98 101 -32 17 -35 17 -43 4z"/>
<path d="M1266 1356 c3 -8 13 -12 25 -9 14 4 31 -7 59 -36 22 -23 39 -47 37
-53 -1 -6 4 -13 11 -15 22 -8 12 26 -18 61 -42 47 -127 87 -114 52z"/>
<path d="M1310 1306 c0 -2 8 -10 18 -17 15 -13 16 -12 3 4 -13 16 -21 21 -21
13z"/>
<path d="M4127 1922 c-37 -38 -34 -50 4 -17 17 14 34 23 37 20 3 -3 3 -6 1 -8
-2 -2 -17 -13 -33 -25 -15 -12 -32 -19 -37 -17 -8 6 -34 -33 -27 -41 7 -7 105
64 112 81 16 42 -20 46 -57 7z"/>
<path d="M1843 1859 c-3 -38 -35 -108 -52 -112 -11 -2 -4 -9 22 -22 20 -10 37
-21 37 -24 -1 -12 -39 -51 -49 -51 -9 0 -9 -5 -1 -21 8 -14 17 -18 28 -14 44
18 49 17 61 -16 6 -17 11 -42 11 -54 0 -13 7 -28 15 -35 13 -10 15 -9 15 12 0
32 -19 89 -36 109 -12 14 -11 17 12 27 17 8 31 9 44 2 44 -23 41 3 -2 30 -38
23 -55 26 -39 6 9 -11 5 -16 -19 -26 -17 -7 -33 -10 -37 -7 -3 4 15 31 41 61
50 59 54 71 30 80 -25 10 -30 7 -31 -15 -1 -11 -9 -32 -18 -45 -13 -20 -19
-22 -35 -14 -11 6 -20 13 -20 16 0 11 53 84 61 84 17 0 9 29 -10 40 -26 13
-27 13 -28 -11z"/>
<path d="M2000 1838 c0 -12 -14 -45 -30 -75 -28 -50 -28 -72 0 -38 21 25 37 1
50 -73 20 -111 30 -142 45 -142 8 0 15 4 15 9 0 8 141 34 159 28 5 -1 9 3 10
8 0 6 -20 9 -44 8 -40 -3 -45 0 -51 22 -7 30 1 45 27 45 10 0 19 5 19 11 0 6
-14 9 -32 7 -27 -2 -34 1 -36 18 -2 13 5 24 20 32 l23 11 -26 0 c-41 1 -47 39
-8 53 36 12 39 33 4 24 -28 -7 -33 5 -9 25 14 12 14 14 -2 26 -27 20 -31 17
-38 -28 -5 -34 -12 -42 -42 -55 -59 -25 -70 -4 -24 46 28 30 29 33 13 46 -26
20 -43 17 -43 -8z m85 -119 c7 -21 -7 -39 -31 -39 -12 0 -25 46 -16 55 13 13
41 3 47 -16z m18 -70 c4 -14 -1 -23 -16 -28 -27 -10 -37 -5 -37 18 0 36 44 45
53 10z m15 -68 c9 -26 8 -30 -11 -35 -33 -9 -34 -8 -41 21 -5 17 -3 29 6 34
23 15 36 10 46 -20z"/>
<path d="M1950 1585 c26 -28 40 -32 40 -12 0 8 -11 19 -25 25 -38 18 -41 15
-15 -13z"/>
<path d="M1847 1583 c-11 -10 -8 -61 3 -68 6 -4 10 10 10 34 0 42 -2 46 -13
34z"/>
<path d="M3298 1567 c-5 -10 -8 -28 -6 -40 3 -20 8 -22 65 -20 48 2 62 -1 67
-13 3 -9 -1 -59 -9 -111 -9 -53 -13 -99 -9 -102 3 -3 14 4 24 16 19 24 45 191
39 253 l-4 35 -78 0 c-66 0 -80 -3 -89 -18z"/>
<path d="M2057 1153 c-4 -3 -7 -13 -7 -22 0 -12 3 -12 12 -3 7 7 45 12 93 13
55 1 72 3 55 9 -31 10 -144 12 -153 3z"/>
<path d="M2142 1120 c2 -7 -8 -17 -22 -21 -22 -6 -20 -7 13 -8 40 -1 47 9 21
29 -12 11 -15 11 -12 0z"/>
<path d="M3410 1108 c-33 -12 -61 -38 -54 -50 3 -5 -2 -18 -12 -29 -9 -10 -12
-19 -6 -19 17 0 44 43 31 51 -7 4 -2 13 12 23 28 19 53 21 43 4 -5 -10 -4 -10
6 -1 20 18 8 32 -20 21z"/>
<path d="M2378 1064 c23 -23 42 -46 42 -52 0 -31 -86 -42 -130 -17 -32 18 -40
18 -40 0 0 -19 -59 -29 -104 -17 -20 6 -34 6 -31 2 7 -12 72 -30 107 -30 16 0
33 8 41 20 13 19 16 19 43 5 30 -15 82 -19 122 -9 47 13 17 70 -63 120 -24 15
-21 11 13 -22z"/>
<path d="M2086 1032 c-3 -5 8 -6 25 -4 17 2 41 -3 57 -12 l27 -17 -24 20 c-23
21 -75 28 -85 13z"/>
<path d="M3274 1010 c0 -23 7 -25 24 -8 17 17 15 28 -6 28 -11 0 -18 -7 -18
-20z"/>
<path d="M3185 980 c-18 -19 -17 -20 6 -20 17 0 20 3 10 9 -11 7 -11 9 0 13 8
3 11 8 8 12 -3 3 -14 -3 -24 -14z"/>
<path d="M3220 979 c0 -5 5 -7 10 -4 6 3 10 8 10 11 0 2 -4 4 -10 4 -5 0 -10
-5 -10 -11z"/>
<path d="M2998 903 c6 -2 18 -2 25 0 6 3 1 5 -13 5 -14 0 -19 -2 -12 -5z"/>
<path d="M2428 853 c7 -3 16 -2 19 1 4 3 -2 6 -13 5 -11 0 -14 -3 -6 -6z"/>
<path d="M2619 853 c-1 -5 -1 -12 0 -17 1 -5 -7 -6 -19 -3 -11 3 -23 1 -26 -4
-6 -10 43 -11 68 -1 17 7 16 8 -2 20 -11 7 -21 9 -21 5z"/>
</g>
</svg>
